<svg xmlns="http://www.w3.org/2000/svg" viewBox="0 0 34 34" fill="none">
  <!-- back layer: charcoal #1A1A1A, offset +1.5,+1.5 -->
  <path d="M 5 26.5 C 5.5 17.5 10.5 9.5 18 8.5 C 25.5 7.5 29.5 17.5 30 26.5" stroke="#1A1A1A" stroke-width="3.4" fill="none" stroke-linecap="round"/>
  <path d="M 18 8.5 C 17.5 14.5 17.3 19.5 17.5 26.5" stroke="#1A1A1A" stroke-width="3.4" fill="none" stroke-linecap="round"/>
  <path d="M 11 17.5 C 14.5 16 21.5 16 24 17.5" stroke="#1A1A1A" stroke-width="3" fill="none" stroke-linecap="round"/>
  <!-- front layer: acid yellow #D8D400, original position -->
  <path d="M 3.5 25 C 4 16 9 8 16.5 7 C 24 6 28 16 28.5 25" stroke="#D8D400" stroke-width="3.4" fill="none" stroke-linecap="round"/>
  <path d="M 16.5 7 C 16 13 15.8 18 16 25" stroke="#D8D400" stroke-width="3.4" fill="none" stroke-linecap="round"/>
  <path d="M 9.5 16 C 13 14.5 20 14.5 22.5 16" stroke="#D8D400" stroke-width="3" fill="none" stroke-linecap="round"/>
</svg>
